<svg width="20" height="20" viewBox="0 0 20 20" fill="none" xmlns="http://www.w3.org/2000/svg">
<path d="M5 17.5V9.16667M5 9.16667V4.16667C5 3.38099 5 2.98816 5.24408 2.74408C5.48816 2.5 5.88099 2.5 6.66667 2.5H14.6548C15.511 2.5 15.9392 2.5 16.0457 2.75722C16.1522 3.01443 15.8495 3.31715 15.2441 3.92259L13.9226 5.24408C13.6448 5.52186 13.5059 5.66074 13.5059 5.83333C13.5059 6.00592 13.6448 6.14481 13.9226 6.42259L15.2441 7.74408C15.8495 8.34952 16.1522 8.65224 16.0457 8.90945C15.9392 9.16667 15.511 9.16667 14.6548 9.16667H5Z" stroke="#FF5722" stroke-width="1.66667" stroke-linecap="round" stroke-linejoin="round"/>
</svg>
