<svg width="46" height="46" viewBox="0 0 46 46" fill="none" xmlns="http://www.w3.org/2000/svg">
<g clip-path="url(#clip0_902_6512)">
<rect x="0.322815" width="45.3543" height="45.3543" rx="22.6771" fill="#201A29"/>
<ellipse cx="0.357421" cy="0.383938" rx="0.357421" ry="0.383938" transform="matrix(-0.171331 -0.985214 0.989 -0.147913 29.5341 11.6432)" fill="#999999"/>
<ellipse cx="0.357421" cy="0.383938" rx="0.357421" ry="0.383938" transform="matrix(-0.171331 -0.985214 0.989 -0.147913 26.1583 2.03198)" fill="#999999"/>
<ellipse cx="0.111694" cy="0.119981" rx="0.111694" ry="0.119981" transform="matrix(-0.171331 -0.985214 0.989 -0.147913 29.0046 6.07715)" fill="#999999"/>
<ellipse cx="0.111694" cy="0.119981" rx="0.111694" ry="0.119981" transform="matrix(-0.171331 -0.985214 0.989 -0.147913 31.1313 5.98511)" fill="#999999"/>
<ellipse cx="0.111694" cy="0.119981" rx="0.111694" ry="0.119981" transform="matrix(-0.171331 -0.985214 0.989 -0.147913 27.847 9.50208)" fill="#999999"/>
<ellipse cx="0.0670164" cy="0.0719883" rx="0.0670164" ry="0.0719883" transform="matrix(-0.171331 -0.985214 0.989 -0.147913 34.1841 12.6188)" fill="#999999"/>
<ellipse cx="0.0670164" cy="0.0719883" rx="0.0670164" ry="0.0719883" transform="matrix(-0.171331 -0.985214 0.989 -0.147913 29.5894 3.28003)" fill="#999999"/>
<ellipse cx="0.0670164" cy="0.0719883" rx="0.0670164" ry="0.0719883" transform="matrix(-0.171331 -0.985214 0.989 -0.147913 36.2543 8.56091)" fill="#999999"/>
<ellipse cx="0.156371" cy="0.167973" rx="0.156371" ry="0.167973" transform="matrix(-0.171331 -0.985214 0.989 -0.147913 32.1019 9.04626)" fill="#999999"/>
<ellipse cx="0.17871" cy="0.191969" rx="0.17871" ry="0.191969" transform="matrix(-0.171331 -0.985214 0.989 -0.147913 32.4205 3.03735)" fill="#999999"/>
<ellipse cx="0.17871" cy="0.191969" rx="0.17871" ry="0.191969" transform="matrix(-0.171331 -0.985214 0.989 -0.147913 24.327 8.58325)" fill="#999999"/>
<ellipse cx="0.239236" cy="0.256985" rx="0.239236" ry="0.256985" transform="matrix(-0.171331 -0.985214 0.989 -0.147913 18.2543 22.5336)" fill="#999999"/>
<ellipse cx="0.239236" cy="0.256985" rx="0.239236" ry="0.256985" transform="matrix(-0.171331 -0.985214 0.989 -0.147913 15.9948 16.1003)" fill="#999999"/>
<ellipse cx="0.0747611" cy="0.0803077" rx="0.0747611" ry="0.0803077" transform="matrix(-0.171331 -0.985214 0.989 -0.147913 17.9 18.808)" fill="#999999"/>
<ellipse cx="0.0747611" cy="0.0803077" rx="0.0747611" ry="0.0803077" transform="matrix(-0.171331 -0.985214 0.989 -0.147913 19.3234 18.7462)" fill="#999999"/>
<ellipse cx="0.0747611" cy="0.0803077" rx="0.0747611" ry="0.0803077" transform="matrix(-0.171331 -0.985214 0.989 -0.147913 17.1252 21.1003)" fill="#999999"/>
<ellipse cx="0.0448567" cy="0.0481846" rx="0.0448567" ry="0.0481846" transform="matrix(-0.171331 -0.985214 0.989 -0.147913 21.3669 23.1865)" fill="#999999"/>
<ellipse cx="0.0448567" cy="0.0481846" rx="0.0448567" ry="0.0481846" transform="matrix(-0.171331 -0.985214 0.989 -0.147913 18.2915 16.9357)" fill="#999999"/>
<ellipse cx="0.0448567" cy="0.0481846" rx="0.0448567" ry="0.0481846" transform="matrix(-0.171331 -0.985214 0.989 -0.147913 22.7523 20.4703)" fill="#999999"/>
<ellipse cx="0.104666" cy="0.112431" rx="0.104666" ry="0.112431" transform="matrix(-0.171331 -0.985214 0.989 -0.147913 19.973 20.7953)" fill="#999999"/>
<ellipse cx="0.119618" cy="0.128492" rx="0.119618" ry="0.128492" transform="matrix(-0.171331 -0.985214 0.989 -0.147913 20.1863 16.7733)" fill="#999999"/>
<ellipse cx="0.119618" cy="0.128492" rx="0.119618" ry="0.128492" transform="matrix(-0.171331 -0.985214 0.989 -0.147913 14.7691 20.4855)" fill="#999999"/>
<ellipse cx="0.239236" cy="0.256985" rx="0.239236" ry="0.256985" transform="matrix(-0.171331 -0.985214 0.989 -0.147913 40.6585 38.0941)" fill="#999999"/>
<ellipse cx="0.239236" cy="0.256985" rx="0.239236" ry="0.256985" transform="matrix(-0.171331 -0.985214 0.989 -0.147913 38.3989 31.6609)" fill="#999999"/>
<ellipse cx="0.0747611" cy="0.0803077" rx="0.0747611" ry="0.0803077" transform="matrix(-0.171331 -0.985214 0.989 -0.147913 40.3042 34.3685)" fill="#999999"/>
<ellipse cx="0.0747611" cy="0.0803077" rx="0.0747611" ry="0.0803077" transform="matrix(-0.171331 -0.985214 0.989 -0.147913 41.7276 34.3068)" fill="#999999"/>
<ellipse cx="0.0747611" cy="0.0803077" rx="0.0747611" ry="0.0803077" transform="matrix(-0.171331 -0.985214 0.989 -0.147913 39.5293 36.6609)" fill="#999999"/>
<ellipse cx="0.0448567" cy="0.0481846" rx="0.0448567" ry="0.0481846" transform="matrix(-0.171331 -0.985214 0.989 -0.147913 43.771 38.7471)" fill="#999999"/>
<ellipse cx="0.0448567" cy="0.0481846" rx="0.0448567" ry="0.0481846" transform="matrix(-0.171331 -0.985214 0.989 -0.147913 40.6957 32.4962)" fill="#999999"/>
<ellipse cx="0.0448567" cy="0.0481846" rx="0.0448567" ry="0.0481846" transform="matrix(-0.171331 -0.985214 0.989 -0.147913 45.1565 36.0309)" fill="#999999"/>
<ellipse cx="0.104666" cy="0.112431" rx="0.104666" ry="0.112431" transform="matrix(-0.171331 -0.985214 0.989 -0.147913 42.3772 36.3558)" fill="#999999"/>
<ellipse cx="0.119618" cy="0.128492" rx="0.119618" ry="0.128492" transform="matrix(-0.171331 -0.985214 0.989 -0.147913 42.5905 32.3339)" fill="#999999"/>
<ellipse cx="0.119618" cy="0.128492" rx="0.119618" ry="0.128492" transform="matrix(-0.171331 -0.985214 0.989 -0.147913 37.1732 36.046)" fill="#999999"/>
<ellipse cx="0.239236" cy="0.256985" rx="0.239236" ry="0.256985" transform="matrix(-0.171331 -0.985214 0.989 -0.147913 23.4466 37.8265)" fill="#999999"/>
<ellipse cx="0.239236" cy="0.256985" rx="0.239236" ry="0.256985" transform="matrix(-0.171331 -0.985214 0.989 -0.147913 21.187 31.3933)" fill="#999999"/>
<ellipse cx="0.0747611" cy="0.0803077" rx="0.0747611" ry="0.0803077" transform="matrix(-0.171331 -0.985214 0.989 -0.147913 23.0923 34.101)" fill="#999999"/>
<ellipse cx="0.0747611" cy="0.0803077" rx="0.0747611" ry="0.0803077" transform="matrix(-0.171331 -0.985214 0.989 -0.147913 24.5157 34.0392)" fill="#999999"/>
<ellipse cx="0.0747611" cy="0.0803077" rx="0.0747611" ry="0.0803077" transform="matrix(-0.171331 -0.985214 0.989 -0.147913 22.3174 36.3933)" fill="#999999"/>
<ellipse cx="0.0448567" cy="0.0481846" rx="0.0448567" ry="0.0481846" transform="matrix(-0.171331 -0.985214 0.989 -0.147913 26.5592 38.4795)" fill="#999999"/>
<ellipse cx="0.0448567" cy="0.0481846" rx="0.0448567" ry="0.0481846" transform="matrix(-0.171331 -0.985214 0.989 -0.147913 23.4838 32.2286)" fill="#999999"/>
<ellipse cx="0.0448567" cy="0.0481846" rx="0.0448567" ry="0.0481846" transform="matrix(-0.171331 -0.985214 0.989 -0.147913 27.9446 35.7633)" fill="#999999"/>
<ellipse cx="0.104666" cy="0.112431" rx="0.104666" ry="0.112431" transform="matrix(-0.171331 -0.985214 0.989 -0.147913 25.1653 36.0883)" fill="#999999"/>
<ellipse cx="0.119618" cy="0.128492" rx="0.119618" ry="0.128492" transform="matrix(-0.171331 -0.985214 0.989 -0.147913 25.3786 32.0663)" fill="#999999"/>
<ellipse cx="0.119618" cy="0.128492" rx="0.119618" ry="0.128492" transform="matrix(-0.171331 -0.985214 0.989 -0.147913 19.9614 35.7784)" fill="#999999"/>
<ellipse cx="0.239236" cy="0.256985" rx="0.239236" ry="0.256985" transform="matrix(-0.171331 -0.985214 0.989 -0.147913 38.8797 18.6544)" fill="#999999"/>
<ellipse cx="0.239236" cy="0.256985" rx="0.239236" ry="0.256985" transform="matrix(-0.171331 -0.985214 0.989 -0.147913 36.6201 12.2213)" fill="#999999"/>
<ellipse cx="0.0747611" cy="0.0803077" rx="0.0747611" ry="0.0803077" transform="matrix(-0.171331 -0.985214 0.989 -0.147913 38.5254 14.9288)" fill="#999999"/>
<ellipse cx="0.0747611" cy="0.0803077" rx="0.0747611" ry="0.0803077" transform="matrix(-0.171331 -0.985214 0.989 -0.147913 39.9488 14.8672)" fill="#999999"/>
<ellipse cx="0.0747611" cy="0.0803077" rx="0.0747611" ry="0.0803077" transform="matrix(-0.171331 -0.985214 0.989 -0.147913 37.7505 17.2212)" fill="#999999"/>
<ellipse cx="0.0448567" cy="0.0481846" rx="0.0448567" ry="0.0481846" transform="matrix(-0.171331 -0.985214 0.989 -0.147913 41.9923 19.3075)" fill="#999999"/>
<ellipse cx="0.0448567" cy="0.0481846" rx="0.0448567" ry="0.0481846" transform="matrix(-0.171331 -0.985214 0.989 -0.147913 38.9169 13.0566)" fill="#999999"/>
<ellipse cx="0.0448567" cy="0.0481846" rx="0.0448567" ry="0.0481846" transform="matrix(-0.171331 -0.985214 0.989 -0.147913 43.3779 16.5912)" fill="#999999"/>
<ellipse cx="0.104666" cy="0.112431" rx="0.104666" ry="0.112431" transform="matrix(-0.171331 -0.985214 0.989 -0.147913 40.5984 16.9163)" fill="#999999"/>
<ellipse cx="0.119618" cy="0.128492" rx="0.119618" ry="0.128492" transform="matrix(-0.171331 -0.985214 0.989 -0.147913 40.8117 12.8942)" fill="#999999"/>
<ellipse cx="0.119618" cy="0.128492" rx="0.119618" ry="0.128492" transform="matrix(-0.171331 -0.985214 0.989 -0.147913 35.3945 16.6064)" fill="#999999"/>
<ellipse cx="0.185679" cy="0.182992" rx="0.185679" ry="0.182992" transform="matrix(0.795326 -0.606182 0.663257 0.748392 2.46246 26.6711)" fill="#999999"/>
<ellipse cx="0.185679" cy="0.182992" rx="0.185679" ry="0.182992" transform="matrix(0.795326 -0.606182 0.663257 0.748392 6.06638 22.9204)" fill="#999999"/>
<ellipse cx="0.0580248" cy="0.0571851" rx="0.0580248" ry="0.0571851" transform="matrix(0.795326 -0.606182 0.663257 0.748392 4.90643 25.0667)" fill="#999999"/>
<ellipse cx="0.0580248" cy="0.0571851" rx="0.0580248" ry="0.0571851" transform="matrix(0.795326 -0.606182 0.663257 0.748392 5.48151 25.8901)" fill="#999999"/>
<ellipse cx="0.0580248" cy="0.0571851" rx="0.0580248" ry="0.0571851" transform="matrix(0.795326 -0.606182 0.663257 0.748392 3.03116 25.4633)" fill="#999999"/>
<ellipse cx="0.0316499" cy="0.0311919" rx="0.0316499" ry="0.0311919" transform="matrix(0.795326 -0.606182 0.663257 0.748392 3.17519 28.7667)" fill="#999999"/>
<ellipse cx="0.0316499" cy="0.0311919" rx="0.0316499" ry="0.0311919" transform="matrix(0.795326 -0.606182 0.663257 0.748392 6.34763 24.599)" fill="#999999"/>
<ellipse cx="0.0316499" cy="0.0311919" rx="0.0316499" ry="0.0311919" transform="matrix(0.795326 -0.606182 0.663257 0.748392 5.57199 28.5746)" fill="#999999"/>
<ellipse cx="0.0812348" cy="0.0800591" rx="0.0812348" ry="0.0800591" transform="matrix(0.795326 -0.606182 0.663257 0.748392 4.30757 27.0431)" fill="#999999"/>
<ellipse cx="0.0928397" cy="0.0914961" rx="0.0928397" ry="0.0914961" transform="matrix(0.795326 -0.606182 0.663257 0.748392 7.16901 25.6654)" fill="#999999"/>
<ellipse cx="0.0928397" cy="0.0914961" rx="0.0928397" ry="0.0914961" transform="matrix(0.795326 -0.606182 0.663257 0.748392 2.57494 23.8319)" fill="#999999"/>
<ellipse cx="0.185679" cy="0.182992" rx="0.185679" ry="0.182992" transform="matrix(0.795326 -0.606182 0.663257 0.748392 24.8666 42.2314)" fill="#999999"/>
<ellipse cx="0.185679" cy="0.182992" rx="0.185679" ry="0.182992" transform="matrix(0.795326 -0.606182 0.663257 0.748392 28.4705 38.4807)" fill="#999999"/>
<ellipse cx="0.0580248" cy="0.0571851" rx="0.0580248" ry="0.0571851" transform="matrix(0.795326 -0.606182 0.663257 0.748392 27.3106 40.627)" fill="#999999"/>
<ellipse cx="0.0580248" cy="0.0571851" rx="0.0580248" ry="0.0571851" transform="matrix(0.795326 -0.606182 0.663257 0.748392 27.8857 41.4504)" fill="#999999"/>
<ellipse cx="0.0580248" cy="0.0571851" rx="0.0580248" ry="0.0571851" transform="matrix(0.795326 -0.606182 0.663257 0.748392 25.4353 41.0236)" fill="#999999"/>
<ellipse cx="0.0316499" cy="0.0311919" rx="0.0316499" ry="0.0311919" transform="matrix(0.795326 -0.606182 0.663257 0.748392 25.5793 44.327)" fill="#999999"/>
<ellipse cx="0.0316499" cy="0.0311919" rx="0.0316499" ry="0.0311919" transform="matrix(0.795326 -0.606182 0.663257 0.748392 28.7518 40.1593)" fill="#999999"/>
<ellipse cx="0.0316499" cy="0.0311919" rx="0.0316499" ry="0.0311919" transform="matrix(0.795326 -0.606182 0.663257 0.748392 27.9762 44.1349)" fill="#999999"/>
<ellipse cx="0.0812348" cy="0.0800591" rx="0.0812348" ry="0.0800591" transform="matrix(0.795326 -0.606182 0.663257 0.748392 26.7117 42.6034)" fill="#999999"/>
<ellipse cx="0.0928397" cy="0.0914961" rx="0.0928397" ry="0.0914961" transform="matrix(0.795326 -0.606182 0.663257 0.748392 29.5732 41.2257)" fill="#999999"/>
<ellipse cx="0.0928397" cy="0.0914961" rx="0.0928397" ry="0.0914961" transform="matrix(0.795326 -0.606182 0.663257 0.748392 24.9791 39.3922)" fill="#999999"/>
<ellipse cx="0.185679" cy="0.182992" rx="0.185679" ry="0.182992" transform="matrix(0.795326 -0.606182 0.663257 0.748392 7.65475 41.9641)" fill="#999999"/>
<ellipse cx="0.185679" cy="0.182992" rx="0.185679" ry="0.182992" transform="matrix(0.795326 -0.606182 0.663257 0.748392 11.2587 38.2134)" fill="#999999"/>
<ellipse cx="0.0580248" cy="0.0571851" rx="0.0580248" ry="0.0571851" transform="matrix(0.795326 -0.606182 0.663257 0.748392 10.0987 40.3595)" fill="#999999"/>
<ellipse cx="0.0580248" cy="0.0571851" rx="0.0580248" ry="0.0571851" transform="matrix(0.795326 -0.606182 0.663257 0.748392 10.6738 41.1831)" fill="#999999"/>
<ellipse cx="0.0580248" cy="0.0571851" rx="0.0580248" ry="0.0571851" transform="matrix(0.795326 -0.606182 0.663257 0.748392 8.22345 40.7562)" fill="#999999"/>
<ellipse cx="0.0316499" cy="0.0311919" rx="0.0316499" ry="0.0311919" transform="matrix(0.795326 -0.606182 0.663257 0.748392 8.36748 44.0597)" fill="#999999"/>
<ellipse cx="0.0316499" cy="0.0311919" rx="0.0316499" ry="0.0311919" transform="matrix(0.795326 -0.606182 0.663257 0.748392 11.5399 39.892)" fill="#999999"/>
<ellipse cx="0.0316499" cy="0.0311919" rx="0.0316499" ry="0.0311919" transform="matrix(0.795326 -0.606182 0.663257 0.748392 10.7643 43.8676)" fill="#999999"/>
<ellipse cx="0.0812348" cy="0.0800591" rx="0.0812348" ry="0.0800591" transform="matrix(0.795326 -0.606182 0.663257 0.748392 9.49986 42.3361)" fill="#999999"/>
<ellipse cx="0.0928397" cy="0.0914961" rx="0.0928397" ry="0.0914961" transform="matrix(0.795326 -0.606182 0.663257 0.748392 12.3613 40.9583)" fill="#999999"/>
<ellipse cx="0.0928397" cy="0.0914961" rx="0.0928397" ry="0.0914961" transform="matrix(0.795326 -0.606182 0.663257 0.748392 7.76721 39.1249)" fill="#999999"/>
<ellipse cx="0.185679" cy="0.182992" rx="0.185679" ry="0.182992" transform="matrix(0.795326 -0.606182 0.663257 0.748392 23.0876 22.7922)" fill="#999999"/>
<ellipse cx="0.185679" cy="0.182992" rx="0.185679" ry="0.182992" transform="matrix(0.795326 -0.606182 0.663257 0.748392 26.6915 19.0415)" fill="#999999"/>
<ellipse cx="0.0580248" cy="0.0571851" rx="0.0580248" ry="0.0571851" transform="matrix(0.795326 -0.606182 0.663257 0.748392 25.5316 21.1876)" fill="#999999"/>
<ellipse cx="0.0580248" cy="0.0571851" rx="0.0580248" ry="0.0571851" transform="matrix(0.795326 -0.606182 0.663257 0.748392 26.1067 22.0112)" fill="#999999"/>
<ellipse cx="0.0580248" cy="0.0571851" rx="0.0580248" ry="0.0571851" transform="matrix(0.795326 -0.606182 0.663257 0.748392 23.6563 21.5844)" fill="#999999"/>
<ellipse cx="0.0316499" cy="0.0311919" rx="0.0316499" ry="0.0311919" transform="matrix(0.795326 -0.606182 0.663257 0.748392 23.8003 24.8878)" fill="#999999"/>
<ellipse cx="0.0316499" cy="0.0311919" rx="0.0316499" ry="0.0311919" transform="matrix(0.795326 -0.606182 0.663257 0.748392 26.9728 20.72)" fill="#999999"/>
<ellipse cx="0.0316499" cy="0.0311919" rx="0.0316499" ry="0.0311919" transform="matrix(0.795326 -0.606182 0.663257 0.748392 26.1971 24.6957)" fill="#999999"/>
<ellipse cx="0.0812348" cy="0.0800591" rx="0.0812348" ry="0.0800591" transform="matrix(0.795326 -0.606182 0.663257 0.748392 24.9327 23.1642)" fill="#999999"/>
<ellipse cx="0.0928397" cy="0.0914961" rx="0.0928397" ry="0.0914961" transform="matrix(0.795326 -0.606182 0.663257 0.748392 27.7942 21.7863)" fill="#999999"/>
<ellipse cx="0.0928397" cy="0.0914961" rx="0.0928397" ry="0.0914961" transform="matrix(0.795326 -0.606182 0.663257 0.748392 23.2001 19.953)" fill="#999999"/>
<ellipse cx="0.185679" cy="0.182992" rx="0.185679" ry="0.182992" transform="matrix(0.795326 -0.606182 0.663257 0.748392 10.2029 20.4292)" fill="#999999"/>
<ellipse cx="0.185679" cy="0.182992" rx="0.185679" ry="0.182992" transform="matrix(0.795326 -0.606182 0.663257 0.748392 13.8068 16.6785)" fill="#999999"/>
<ellipse cx="0.0580248" cy="0.0571851" rx="0.0580248" ry="0.0571851" transform="matrix(0.795326 -0.606182 0.663257 0.748392 12.6468 18.8246)" fill="#999999"/>
<ellipse cx="0.0580248" cy="0.0571851" rx="0.0580248" ry="0.0571851" transform="matrix(0.795326 -0.606182 0.663257 0.748392 13.2219 19.6482)" fill="#999999"/>
<ellipse cx="0.0580248" cy="0.0571851" rx="0.0580248" ry="0.0571851" transform="matrix(0.795326 -0.606182 0.663257 0.748392 10.7716 19.2213)" fill="#999999"/>
<ellipse cx="0.0316499" cy="0.0311919" rx="0.0316499" ry="0.0311919" transform="matrix(0.795326 -0.606182 0.663257 0.748392 10.9156 22.5248)" fill="#999999"/>
<ellipse cx="0.0316499" cy="0.0311919" rx="0.0316499" ry="0.0311919" transform="matrix(0.795326 -0.606182 0.663257 0.748392 14.088 18.3571)" fill="#999999"/>
<ellipse cx="0.0316499" cy="0.0311919" rx="0.0316499" ry="0.0311919" transform="matrix(0.795326 -0.606182 0.663257 0.748392 13.3124 22.3326)" fill="#999999"/>
<ellipse cx="0.0812348" cy="0.0800591" rx="0.0812348" ry="0.0800591" transform="matrix(0.795326 -0.606182 0.663257 0.748392 12.048 20.8011)" fill="#999999"/>
<ellipse cx="0.0928397" cy="0.0914961" rx="0.0928397" ry="0.0914961" transform="matrix(0.795326 -0.606182 0.663257 0.748392 14.9094 19.4233)" fill="#999999"/>
<ellipse cx="0.0928397" cy="0.0914961" rx="0.0928397" ry="0.0914961" transform="matrix(0.795326 -0.606182 0.663257 0.748392 10.3153 17.59)" fill="#999999"/>
<ellipse cx="0.185679" cy="0.182992" rx="0.185679" ry="0.182992" transform="matrix(0.795326 -0.606182 0.663257 0.748392 32.607 35.9897)" fill="#999999"/>
<ellipse cx="0.185679" cy="0.182992" rx="0.185679" ry="0.182992" transform="matrix(0.795326 -0.606182 0.663257 0.748392 36.2109 32.239)" fill="#999999"/>
<ellipse cx="0.0580248" cy="0.0571851" rx="0.0580248" ry="0.0571851" transform="matrix(0.795326 -0.606182 0.663257 0.748392 35.051 34.3851)" fill="#999999"/>
<ellipse cx="0.0580248" cy="0.0571851" rx="0.0580248" ry="0.0571851" transform="matrix(0.795326 -0.606182 0.663257 0.748392 35.6261 35.2087)" fill="#999999"/>
<ellipse cx="0.0580248" cy="0.0571851" rx="0.0580248" ry="0.0571851" transform="matrix(0.795326 -0.606182 0.663257 0.748392 33.1757 34.7819)" fill="#999999"/>
<ellipse cx="0.0316499" cy="0.0311919" rx="0.0316499" ry="0.0311919" transform="matrix(0.795326 -0.606182 0.663257 0.748392 33.3197 38.0853)" fill="#999999"/>
<ellipse cx="0.0316499" cy="0.0311919" rx="0.0316499" ry="0.0311919" transform="matrix(0.795326 -0.606182 0.663257 0.748392 36.4922 33.9175)" fill="#999999"/>
<ellipse cx="0.0316499" cy="0.0311919" rx="0.0316499" ry="0.0311919" transform="matrix(0.795326 -0.606182 0.663257 0.748392 35.7166 37.8932)" fill="#999999"/>
<ellipse cx="0.0812348" cy="0.0800591" rx="0.0812348" ry="0.0800591" transform="matrix(0.795326 -0.606182 0.663257 0.748392 34.4521 36.3617)" fill="#999999"/>
<ellipse cx="0.0928397" cy="0.0914961" rx="0.0928397" ry="0.0914961" transform="matrix(0.795326 -0.606182 0.663257 0.748392 37.3136 34.984)" fill="#999999"/>
<ellipse cx="0.0928397" cy="0.0914961" rx="0.0928397" ry="0.0914961" transform="matrix(0.795326 -0.606182 0.663257 0.748392 32.7195 33.1504)" fill="#999999"/>
<ellipse cx="0.185679" cy="0.182992" rx="0.185679" ry="0.182992" transform="matrix(0.795326 -0.606182 0.663257 0.748392 15.3954 35.7222)" fill="#999999"/>
<ellipse cx="0.185679" cy="0.182992" rx="0.185679" ry="0.182992" transform="matrix(0.795326 -0.606182 0.663257 0.748392 18.9993 31.9714)" fill="#999999"/>
<ellipse cx="0.0580248" cy="0.0571851" rx="0.0580248" ry="0.0571851" transform="matrix(0.795326 -0.606182 0.663257 0.748392 17.8394 34.1176)" fill="#999999"/>
<ellipse cx="0.0580248" cy="0.0571851" rx="0.0580248" ry="0.0571851" transform="matrix(0.795326 -0.606182 0.663257 0.748392 18.4144 34.941)" fill="#999999"/>
<ellipse cx="0.0580248" cy="0.0571851" rx="0.0580248" ry="0.0571851" transform="matrix(0.795326 -0.606182 0.663257 0.748392 15.9641 34.5143)" fill="#999999"/>
<ellipse cx="0.0316499" cy="0.0311919" rx="0.0316499" ry="0.0311919" transform="matrix(0.795326 -0.606182 0.663257 0.748392 16.1081 37.8177)" fill="#999999"/>
<ellipse cx="0.0316499" cy="0.0311919" rx="0.0316499" ry="0.0311919" transform="matrix(0.795326 -0.606182 0.663257 0.748392 19.2806 33.6499)" fill="#999999"/>
<ellipse cx="0.0316499" cy="0.0311919" rx="0.0316499" ry="0.0311919" transform="matrix(0.795326 -0.606182 0.663257 0.748392 18.5049 37.6256)" fill="#999999"/>
<ellipse cx="0.0812348" cy="0.0800591" rx="0.0812348" ry="0.0800591" transform="matrix(0.795326 -0.606182 0.663257 0.748392 17.2405 36.0941)" fill="#999999"/>
<ellipse cx="0.0928397" cy="0.0914961" rx="0.0928397" ry="0.0914961" transform="matrix(0.795326 -0.606182 0.663257 0.748392 20.1019 34.7162)" fill="#999999"/>
<ellipse cx="0.0928397" cy="0.0914961" rx="0.0928397" ry="0.0914961" transform="matrix(0.795326 -0.606182 0.663257 0.748392 15.5079 32.8828)" fill="#999999"/>
<ellipse cx="0.185679" cy="0.182992" rx="0.185679" ry="0.182992" transform="matrix(0.795326 -0.606182 0.663257 0.748392 30.8283 16.55)" fill="#999999"/>
<ellipse cx="0.185679" cy="0.182992" rx="0.185679" ry="0.182992" transform="matrix(0.795326 -0.606182 0.663257 0.748392 34.4322 12.7993)" fill="#999999"/>
<ellipse cx="0.0580248" cy="0.0571851" rx="0.0580248" ry="0.0571851" transform="matrix(0.795326 -0.606182 0.663257 0.748392 33.2722 14.9454)" fill="#999999"/>
<ellipse cx="0.0580248" cy="0.0571851" rx="0.0580248" ry="0.0571851" transform="matrix(0.795326 -0.606182 0.663257 0.748392 33.8473 15.769)" fill="#999999"/>
<ellipse cx="0.0580248" cy="0.0571851" rx="0.0580248" ry="0.0571851" transform="matrix(0.795326 -0.606182 0.663257 0.748392 31.397 15.3422)" fill="#999999"/>
<ellipse cx="0.0316499" cy="0.0311919" rx="0.0316499" ry="0.0311919" transform="matrix(0.795326 -0.606182 0.663257 0.748392 31.541 18.6456)" fill="#999999"/>
<ellipse cx="0.0316499" cy="0.0311919" rx="0.0316499" ry="0.0311919" transform="matrix(0.795326 -0.606182 0.663257 0.748392 34.7134 14.4779)" fill="#999999"/>
<ellipse cx="0.0316499" cy="0.0311919" rx="0.0316499" ry="0.0311919" transform="matrix(0.795326 -0.606182 0.663257 0.748392 33.9378 18.4535)" fill="#999999"/>
<ellipse cx="0.0812348" cy="0.0800591" rx="0.0812348" ry="0.0800591" transform="matrix(0.795326 -0.606182 0.663257 0.748392 32.6734 16.922)" fill="#999999"/>
<ellipse cx="0.0928397" cy="0.0914961" rx="0.0928397" ry="0.0914961" transform="matrix(0.795326 -0.606182 0.663257 0.748392 35.5348 15.5441)" fill="#999999"/>
<ellipse cx="0.0928397" cy="0.0914961" rx="0.0928397" ry="0.0914961" transform="matrix(0.795326 -0.606182 0.663257 0.748392 30.9407 13.7108)" fill="#999999"/>
<ellipse cx="0.357421" cy="0.383938" rx="0.357421" ry="0.383938" transform="matrix(-0.171331 -0.985214 0.989 -0.147913 8.90887 15.522)" fill="#999999"/>
<ellipse cx="0.357421" cy="0.383938" rx="0.357421" ry="0.383938" transform="matrix(-0.171331 -0.985214 0.989 -0.147913 5.53308 5.91077)" fill="#999999"/>
<ellipse cx="0.111694" cy="0.119981" rx="0.111694" ry="0.119981" transform="matrix(-0.171331 -0.985214 0.989 -0.147913 8.37933 9.95593)" fill="#999999"/>
<ellipse cx="0.111694" cy="0.119981" rx="0.111694" ry="0.119981" transform="matrix(-0.171331 -0.985214 0.989 -0.147913 10.5061 9.86365)" fill="#999999"/>
<ellipse cx="0.111694" cy="0.119981" rx="0.111694" ry="0.119981" transform="matrix(-0.171331 -0.985214 0.989 -0.147913 7.22177 13.3809)" fill="#999999"/>
<ellipse cx="0.0670164" cy="0.0719883" rx="0.0670164" ry="0.0719883" transform="matrix(-0.171331 -0.985214 0.989 -0.147913 13.5589 16.4976)" fill="#999999"/>
<ellipse cx="0.0670164" cy="0.0719883" rx="0.0670164" ry="0.0719883" transform="matrix(-0.171331 -0.985214 0.989 -0.147913 8.9642 7.15881)" fill="#999999"/>
<ellipse cx="0.0670164" cy="0.0719883" rx="0.0670164" ry="0.0719883" transform="matrix(-0.171331 -0.985214 0.989 -0.147913 15.6291 12.4396)" fill="#999999"/>
<ellipse cx="0.156371" cy="0.167973" rx="0.156371" ry="0.167973" transform="matrix(-0.171331 -0.985214 0.989 -0.147913 11.4767 12.9249)" fill="#999999"/>
<ellipse cx="0.17871" cy="0.191969" rx="0.17871" ry="0.191969" transform="matrix(-0.171331 -0.985214 0.989 -0.147913 11.7953 6.91602)" fill="#999999"/>
<ellipse cx="0.17871" cy="0.191969" rx="0.17871" ry="0.191969" transform="matrix(-0.171331 -0.985214 0.989 -0.147913 3.70175 12.4619)" fill="#999999"/>
<ellipse cx="0.357421" cy="0.383938" rx="0.357421" ry="0.383938" transform="matrix(-0.171331 -0.985214 0.989 -0.147913 31.313 31.0824)" fill="#999999"/>
<ellipse cx="0.357421" cy="0.383938" rx="0.357421" ry="0.383938" transform="matrix(-0.171331 -0.985214 0.989 -0.147913 27.9372 21.4712)" fill="#999999"/>
<ellipse cx="0.111694" cy="0.119981" rx="0.111694" ry="0.119981" transform="matrix(-0.171331 -0.985214 0.989 -0.147913 30.7835 25.5164)" fill="#999999"/>
<ellipse cx="0.111694" cy="0.119981" rx="0.111694" ry="0.119981" transform="matrix(-0.171331 -0.985214 0.989 -0.147913 32.91 25.4241)" fill="#999999"/>
<ellipse cx="0.111694" cy="0.119981" rx="0.111694" ry="0.119981" transform="matrix(-0.171331 -0.985214 0.989 -0.147913 29.6259 28.9413)" fill="#999999"/>
<ellipse cx="0.0670164" cy="0.0719883" rx="0.0670164" ry="0.0719883" transform="matrix(-0.171331 -0.985214 0.989 -0.147913 35.963 32.058)" fill="#999999"/>
<ellipse cx="0.0670164" cy="0.0719883" rx="0.0670164" ry="0.0719883" transform="matrix(-0.171331 -0.985214 0.989 -0.147913 31.3684 22.7192)" fill="#999999"/>
<ellipse cx="0.0670164" cy="0.0719883" rx="0.0670164" ry="0.0719883" transform="matrix(-0.171331 -0.985214 0.989 -0.147913 38.0331 28)" fill="#999999"/>
<ellipse cx="0.156371" cy="0.167973" rx="0.156371" ry="0.167973" transform="matrix(-0.171331 -0.985214 0.989 -0.147913 33.8808 28.4855)" fill="#999999"/>
<ellipse cx="0.17871" cy="0.191969" rx="0.17871" ry="0.191969" transform="matrix(-0.171331 -0.985214 0.989 -0.147913 34.1994 22.4766)" fill="#999999"/>
<ellipse cx="0.17871" cy="0.191969" rx="0.17871" ry="0.191969" transform="matrix(-0.171331 -0.985214 0.989 -0.147913 26.1059 28.0225)" fill="#999999"/>
<ellipse cx="0.357421" cy="0.383938" rx="0.357421" ry="0.383938" transform="matrix(-0.171331 -0.985214 0.989 -0.147913 14.1014 30.8148)" fill="#999999"/>
<ellipse cx="0.357421" cy="0.383938" rx="0.357421" ry="0.383938" transform="matrix(-0.171331 -0.985214 0.989 -0.147913 10.7256 21.2036)" fill="#999999"/>
<ellipse cx="0.111694" cy="0.119981" rx="0.111694" ry="0.119981" transform="matrix(-0.171331 -0.985214 0.989 -0.147913 13.5719 25.2488)" fill="#999999"/>
<ellipse cx="0.111694" cy="0.119981" rx="0.111694" ry="0.119981" transform="matrix(-0.171331 -0.985214 0.989 -0.147913 15.6986 25.1565)" fill="#999999"/>
<ellipse cx="0.111694" cy="0.119981" rx="0.111694" ry="0.119981" transform="matrix(-0.171331 -0.985214 0.989 -0.147913 12.4143 28.6735)" fill="#999999"/>
<ellipse cx="0.0670164" cy="0.0719883" rx="0.0670164" ry="0.0719883" transform="matrix(-0.171331 -0.985214 0.989 -0.147913 18.7514 31.7904)" fill="#999999"/>
<ellipse cx="0.0670164" cy="0.0719883" rx="0.0670164" ry="0.0719883" transform="matrix(-0.171331 -0.985214 0.989 -0.147913 14.1567 22.4517)" fill="#999999"/>
<ellipse cx="0.0670164" cy="0.0719883" rx="0.0670164" ry="0.0719883" transform="matrix(-0.171331 -0.985214 0.989 -0.147913 20.8214 27.7323)" fill="#999999"/>
<ellipse cx="0.156371" cy="0.167973" rx="0.156371" ry="0.167973" transform="matrix(-0.171331 -0.985214 0.989 -0.147913 16.6692 28.2179)" fill="#999999"/>
<ellipse cx="0.17871" cy="0.191969" rx="0.17871" ry="0.191969" transform="matrix(-0.171331 -0.985214 0.989 -0.147913 16.9878 22.209)" fill="#999999"/>
<ellipse cx="0.17871" cy="0.191969" rx="0.17871" ry="0.191969" transform="matrix(-0.171331 -0.985214 0.989 -0.147913 8.89429 27.7549)" fill="#999999"/>
<path fill-rule="evenodd" clip-rule="evenodd" d="M16.0637 19.5247L17.1016 23.3353L12.8137 24.4655L12.7474 24.2257L12.7465 24.2201L12.7446 24.2145L11.8438 20.9077L11.8419 20.9021L11.84 20.8965L11.7747 20.6549L16.0637 19.5247ZM11.4553 21.2459L12.2361 24.1122L8.36034 25.1326L7.57953 22.2664L11.4553 21.2459ZM29.869 14.4315C29.8587 14.3924 29.8653 14.3515 29.8843 14.32C29.9032 14.2865 29.9354 14.2605 29.975 14.2512L32.1445 13.6786L33.587 18.9744C33.7251 19.4819 33.8632 19.9875 34.0012 20.4931L31.8647 21.0563C31.8165 21.0693 31.7664 21.0619 31.7257 21.0377C31.6852 21.0155 31.6531 20.9764 31.6397 20.9299L30.2964 16.0003L30.2955 15.9947L30.2926 15.9835L30.2879 15.9687L29.869 14.4315ZM34.1354 19.2217L32.9074 14.714C33.3309 14.8331 33.7194 15.0356 34.0417 15.3107C34.4369 15.6472 34.7328 16.0914 34.8746 16.6119C35.0172 17.1324 34.9861 17.6621 34.815 18.1473C34.6752 18.5431 34.4425 18.9112 34.1354 19.2217ZM20.8479 23.1215L20.8498 23.181L18.3957 23.8278C18.2217 23.8725 18.0431 23.8445 17.8984 23.7628C17.7585 23.6828 17.6489 23.5546 17.5987 23.3947L17.5969 23.3874L17.5941 23.3799L17.5922 23.3725L16.4513 19.1864L16.4502 19.1808L16.4493 19.179L16.4483 19.1752C16.4105 19.0266 16.4369 18.8741 16.5097 18.7496C16.5845 18.6232 16.7092 18.5229 16.8642 18.4819L29.5799 15.1323L29.784 15.8814L23.007 17.6677C22.8822 17.6993 22.8096 17.8238 22.8426 17.9465C22.8747 18.0673 23.0023 18.1398 23.1261 18.1082L29.9041 16.3218L31.0413 20.495L22.9654 22.6233L22.9588 22.6103L22.9551 22.6029L22.9522 22.5991L22.9513 22.5954L22.9399 22.5749H22.939L22.9361 22.5693L22.9323 22.5638L22.9314 22.5619L22.9276 22.5564L22.9258 22.5526L22.9239 22.5488L22.9201 22.5433L22.9182 22.5415L22.9153 22.5359L22.9115 22.5303H22.9105L22.9068 22.5229L22.9039 22.5191L22.903 22.5173L22.8983 22.5099L22.8964 22.508L22.8936 22.5043L22.8897 22.4969H22.8887L22.8849 22.4913L22.8812 22.4857L22.8802 22.4839L22.8755 22.4783L22.8727 22.4746L22.8708 22.4727L22.867 22.4653L22.8651 22.4635L22.8613 22.4597L22.8574 22.4542L22.8528 22.4486L22.849 22.443L22.8471 22.4411L22.8424 22.4356L22.8406 22.4337L22.8378 22.43L22.833 22.4245L22.832 22.4225L22.8273 22.4188L22.8235 22.4132L22.8226 22.4115L22.8179 22.4059L22.8151 22.402L22.8122 22.4003L22.8074 22.3947L22.8055 22.3929L22.8027 22.3891L22.7971 22.3835L22.7915 22.378L22.7876 22.3724H22.7867L22.7819 22.3668L22.7781 22.363L22.7762 22.3612L22.7706 22.3556L22.7687 22.3538L22.7649 22.3501L22.7593 22.3445L22.7535 22.339L22.7498 22.3351L22.7488 22.3333L22.7431 22.3277L22.7403 22.326L22.7375 22.3221L22.7318 22.3185L22.7309 22.3166L22.726 22.3129L22.7204 22.3073L22.7138 22.3017L22.7109 22.298H22.7081L22.7025 22.2924L22.7005 22.2905L22.6967 22.2868L22.6911 22.2812H22.6901L22.6845 22.2775L22.6798 22.2738L22.6788 22.2719L22.6721 22.2682L22.6692 22.2644L22.6664 22.2626L22.6608 22.257H22.6589L22.6542 22.2533L22.6486 22.2477H22.6476L22.639 22.2421L22.6372 22.2402L22.6306 22.2347L22.6268 22.2329L22.6211 22.2291L22.6153 22.2254L22.6125 22.2216L22.6041 22.216H22.6031L22.5937 22.2105V22.2086L22.5841 22.203L22.5822 22.2012L22.5747 22.1974L22.5701 22.1937L22.5661 22.1919L22.5596 22.1881L22.5567 22.1864L22.5473 22.1808H22.5463L22.5368 22.1751L22.5357 22.1733L22.5273 22.1696L22.5245 22.1678L22.5178 22.1639L22.5121 22.1603L22.5074 22.1584L22.4999 22.1547L22.4981 22.1529L22.4886 22.1473L22.4782 22.1417H22.4763L22.4678 22.138L22.464 22.1361L22.4582 22.1324L22.4517 22.1305L22.4479 22.1268L22.4403 22.1231H22.4375L22.4271 22.1175L22.4167 22.1138H22.4149L22.4064 22.11L22.4025 22.1081L22.3959 22.1044L22.3903 22.1026L22.3856 22.1008L22.377 22.097H22.3751L22.3648 22.0933V22.0914L22.3545 22.0877H22.3516L22.343 22.0839H22.3392L22.3326 22.0821L22.326 22.0783H22.3221L22.3127 22.0746H22.3108L22.3005 22.0709H22.2995L22.289 22.0671H22.2862L22.2787 22.0634H22.2731L22.2673 22.0616L22.2598 22.0597L22.256 22.0579L22.2466 22.056H22.2447L22.2342 22.0523H22.2333L22.223 22.0505L22.2201 22.0487L22.2115 22.0468H22.2059L22.2003 22.045L22.1927 22.0431H22.1888L22.1785 22.0413L22.1775 22.0394L22.1662 22.0376H22.1653L22.1548 22.0357H22.151L22.1435 22.034H22.1378L22.1321 22.0321H22.1236H22.1199L22.1095 22.0303H22.1085L22.0971 22.0284H22.0953L22.0858 22.0266H22.082H22.0735L22.0678 22.0248H22.0621H22.0536H22.0507L22.0385 22.0229H22.0271H22.0252H22.0149L22.0102 22.0211H22.0027H21.9959H21.9913H21.9818H21.9799H21.9675C21.6585 22.0211 21.3777 22.1456 21.1755 22.3426C21.1207 22.3965 21.0724 22.4579 21.0299 22.5211L21.0241 22.5285L21.0232 22.5322L21.0023 22.5639V22.5656L20.9892 22.5879L20.9826 22.5973V22.5991L20.9759 22.6103L20.9589 22.6456H20.9579L20.9475 22.6679L20.9465 22.6698L20.9456 22.6716L20.9361 22.6921L20.9352 22.6939L20.9313 22.7051L20.9304 22.7068L20.9266 22.7162L20.9248 22.7199L20.9171 22.7404L20.9152 22.7442L20.9124 22.7534L20.9106 22.7572L20.9077 22.7666L20.9039 22.7777L20.9021 22.7832L20.8993 22.7907L20.8983 22.7962L20.8955 22.8037L20.8935 22.8093L20.8916 22.8167L20.8898 22.8204L20.8879 22.8298L20.8841 22.8409L20.8831 22.8483L20.8813 22.8539L20.8794 22.8614L20.8776 22.8669L20.8766 22.8743L20.8748 22.8799L20.8719 22.8929L20.8701 22.9003L20.8691 22.9059L20.8671 22.9151V22.9189L20.8653 22.9283L20.8643 22.932L20.8624 22.9413L20.8615 22.9469L20.8605 22.9543L20.8595 22.9599L20.8586 22.9692L20.8577 22.973L20.8566 22.9823L20.8557 22.986L20.8547 22.9971V22.999L20.8529 23.0101V23.012L20.8519 23.0232V23.0269L20.8509 23.038V23.0399L20.8491 23.051V23.0529V23.0659V23.0677L20.8481 23.0789V23.0807L20.8471 23.0937V23.1086V23.1215H20.8479ZM21.9588 18.415C22.0827 18.3834 22.1563 18.257 22.1232 18.1362C22.0902 18.0135 21.9634 17.941 21.8397 17.9744L20.227 18.3982C20.1031 18.4317 20.0293 18.5563 20.0625 18.679C20.0955 18.7998 20.2223 18.8723 20.346 18.8407L21.9588 18.415ZM37.7852 17.6751C37.7446 17.7941 37.8107 17.9224 37.9317 17.9633C38.0527 18.0023 38.1842 17.9372 38.2247 17.8183C38.3402 17.4818 38.4072 17.1231 38.4186 16.7569C38.4299 16.4037 38.3892 16.0431 38.2919 15.6862C38.1954 15.3292 38.0461 14.9965 37.8571 14.6954C37.6613 14.385 37.4213 14.1081 37.149 13.872C37.0536 13.7883 36.907 13.7976 36.8219 13.8925C36.7378 13.9854 36.7463 14.1304 36.8418 14.2141C37.081 14.4204 37.2918 14.6639 37.4629 14.9352C37.6283 15.1973 37.7578 15.4891 37.8438 15.8033C37.9298 16.1175 37.9658 16.4334 37.9563 16.7401V16.744C37.9459 17.0636 37.8873 17.3778 37.7852 17.6751ZM36.9164 17.3425C36.8786 17.4633 36.9457 17.5915 37.0676 17.6306C37.1905 17.6677 37.3211 17.6008 37.3598 17.48C37.4392 17.2346 37.4837 16.9726 37.4893 16.7049C37.4949 16.4465 37.4647 16.1825 37.3937 15.9223C37.3229 15.6639 37.2161 15.4205 37.079 15.1992C36.9373 14.9687 36.7651 14.7642 36.5714 14.5895C36.4758 14.5059 36.3294 14.5133 36.2434 14.6062C36.1574 14.6992 36.1639 14.8423 36.2585 14.9279C36.4229 15.0747 36.5667 15.2457 36.6839 15.4334C36.7964 15.6174 36.8862 15.8201 36.9457 16.0413C37.0053 16.2607 37.0318 16.4819 37.027 16.6956C37.0224 16.9149 36.9845 17.1342 36.9164 17.3425ZM35.9939 16.9986C35.9607 17.1194 36.0345 17.2439 36.1584 17.2774C36.2821 17.3089 36.4088 17.2366 36.4419 17.1157C36.4835 16.967 36.5053 16.807 36.5053 16.6454C36.5063 16.4911 36.4854 16.3313 36.4428 16.1732C36.4004 16.0172 36.337 15.8684 36.2566 15.7346C36.1753 15.5952 36.0752 15.4688 35.9617 15.3572C35.871 15.268 35.7245 15.2698 35.6347 15.359C35.544 15.4483 35.5449 15.5914 35.6356 15.6806C35.7197 15.7624 35.7944 15.8573 35.8558 15.9614C35.9145 16.0617 35.9617 16.1732 35.994 16.2903C36.0261 16.4074 36.0412 16.5282 36.0412 16.6454C36.0429 16.7625 36.0251 16.8832 35.9939 16.9986ZM21.7724 23.7368C21.7082 23.7163 21.6506 23.6884 21.5967 23.6531L19.9206 28.224L21.7526 29.5995V23.8278C21.7526 23.7963 21.7593 23.7646 21.7724 23.7368ZM22.3434 23.6494C22.315 23.6698 22.2839 23.6884 22.2508 23.7033L22.248 23.7051H22.2452H22.2442L22.2413 23.707L22.2385 23.7088H22.2375L22.2356 23.7106L22.1941 23.7273C22.2092 23.7571 22.2178 23.7924 22.2178 23.8277V29.6291L24.0261 28.103L22.3434 23.6494ZM27.0369 23.1234C26.778 23.1234 26.568 23.3297 26.568 23.5843C26.568 23.839 26.778 24.0453 27.0369 24.0453C27.2959 24.0453 27.5059 23.839 27.5059 23.5843C27.5059 23.3297 27.2959 23.1234 27.0369 23.1234ZM30.2434 22.7813C29.9429 22.7813 29.698 23.0211 29.698 23.3167C29.698 23.6122 29.9429 23.852 30.2434 23.852C30.544 23.852 30.7879 23.6122 30.7879 23.3167C30.7879 23.0211 30.5441 22.7813 30.2434 22.7813ZM24.9118 13.6062C24.5734 13.6062 24.2993 13.8757 24.2993 14.2084C24.2993 14.5412 24.5734 14.8107 24.9118 14.8107C25.2502 14.8107 25.5244 14.5412 25.5244 14.2084C25.5244 13.8757 25.2502 13.6062 24.9118 13.6062ZM16.0268 26.1551C15.4171 26.1551 14.9227 26.6421 14.9227 27.2425C14.9227 27.8411 15.4171 28.3281 16.0268 28.3281C16.6375 28.3281 17.131 27.8411 17.131 27.2425C17.131 26.6421 16.6376 26.1551 16.0268 26.1551ZM21.3205 23.023L21.3215 23.0192V23.0155L21.3225 23.0117L21.3235 23.008L21.3244 23.0043V23.0006L21.3254 22.9949L21.3264 22.9912L21.3274 22.9875L21.3284 22.9837V22.98L21.3303 22.9763L21.3312 22.9725L21.3322 22.9687V22.965L21.334 22.9613V22.9575L21.3359 22.9519L21.3369 22.9501L21.3378 22.9445L21.3388 22.9427L21.3407 22.9372V22.9353L21.3425 22.9297L21.3435 22.9279L21.3453 22.9223V22.9205L21.3472 22.9148L21.3482 22.913L21.35 22.9075L21.351 22.9056L21.3529 22.9001L21.3558 22.8926L21.3586 22.8852L21.3614 22.8778L21.3643 22.8704L21.3671 22.8629H21.3681L21.3709 22.8574V22.8556L21.3737 22.85H21.3746L21.3775 22.8426L21.3803 22.837L21.3814 22.8351L21.3842 22.8296L21.3852 22.8277L21.388 22.8221H21.389L21.3909 22.8165L21.3918 22.8148L21.3946 22.8091L21.3956 22.8073L21.3984 22.8035L21.4003 22.8018L21.4021 22.7961L21.404 22.7943L21.4068 22.7906L21.4079 22.7868L21.4107 22.783L21.4117 22.7813L21.4145 22.7775L21.4163 22.7738L21.4192 22.77L21.421 22.7682L21.4229 22.7645L21.4248 22.7607L21.4267 22.7589L21.4295 22.7552L21.4313 22.7514L21.4332 22.7476L21.4361 22.7458L21.438 22.7421L21.4399 22.7402L21.4427 22.7365L21.4446 22.7327L21.4474 22.729L21.4491 22.7274L21.452 22.7237L21.4538 22.7219L21.4576 22.7181L21.4586 22.7163L21.4625 22.7126L21.4635 22.7107L21.4672 22.7051H21.4682L21.472 22.6996H21.4739L21.4776 22.6939H21.4786L21.4824 22.6884H21.4834L21.4881 22.6829H21.4892L21.4939 22.6772L21.5051 22.666C21.5382 22.6345 21.5751 22.6047 21.6148 22.5787L21.6214 22.5749L21.6346 22.5676L21.6422 22.5639L21.6488 22.56L21.6556 22.5564L21.6631 22.5526L21.6696 22.5488L21.6763 22.5451H21.6772L21.6915 22.5378L21.699 22.5339L21.7057 22.5321L21.7132 22.5283L21.7207 22.5266V22.5247L21.7274 22.5229L21.7349 22.5191H21.736L21.7425 22.5173L21.75 22.5136L21.7575 22.5117L21.7662 22.5099L21.7737 22.508V22.5062L21.7812 22.5043L21.7888 22.5025L21.7963 22.5007L21.8048 22.4989L21.8125 22.497L21.82 22.4951L21.8284 22.4933L21.8359 22.4915L21.8445 22.4896L21.852 22.4879H21.8605L21.8681 22.486L21.8766 22.4842H21.8851L21.8926 22.4823H21.9012L21.9097 22.4805H21.9172H21.9258L21.9342 22.4786H21.9427H21.9513H21.9598H21.9682H21.975H21.9769H21.9825H21.9853H21.9891H21.9937H21.9956H22.0014H22.0033L22.0098 22.4805H22.0165H22.0184H22.024H22.0268H22.0307L22.0354 22.4823H22.0382H22.0429H22.0448L22.0514 22.4842H22.0581H22.06L22.0647 22.486H22.0675H22.0713L22.0759 22.4879H22.0788H22.0836H22.0855L22.092 22.4896L22.0987 22.4915H22.0996H22.1053L22.1081 22.4933H22.112L22.1158 22.4951H22.1187L22.1243 22.497H22.1252L22.1319 22.4989L22.1376 22.5007H22.1395L22.1451 22.5025H22.147L22.1508 22.5043H22.1555L22.1573 22.5062H22.1631L22.164 22.508L22.1697 22.5099H22.1707L22.1763 22.5117H22.1782L22.1829 22.5136H22.1857L22.1885 22.5154L22.1933 22.5173H22.1952L22.2009 22.519H22.2018L22.2074 22.5228H22.2084L22.2141 22.5246H22.2159L22.2198 22.5265L22.2226 22.5283L22.2265 22.5302L22.2302 22.532H22.2321L22.2377 22.5338H22.2387L22.2454 22.5376L22.2501 22.5394L22.252 22.5413L22.2566 22.5431L22.2595 22.5449H22.2623L22.2661 22.5486H22.268L22.2737 22.5506V22.5523L22.2794 22.5542L22.2804 22.556L22.2851 22.5578H22.2869L22.2907 22.5616L22.2944 22.5635H22.2963L22.3012 22.5672H22.3021L22.3077 22.5709L22.3134 22.5746H22.3144L22.3191 22.5765L22.3209 22.5783L22.3248 22.5801L22.3276 22.582L22.3305 22.5838L22.3343 22.5875H22.3361L22.3408 22.5913L22.3464 22.595H22.3474L22.3512 22.5988L22.3541 22.6006L22.3569 22.6025L22.3598 22.6043L22.3616 22.6062L22.3663 22.6099H22.3673L22.372 22.6136H22.373L22.3777 22.6174L22.3787 22.6192L22.3834 22.6229L22.3852 22.6248L22.3881 22.6266L22.3909 22.6285L22.3927 22.6303L22.3966 22.634H22.3984L22.4031 22.6378V22.6396L22.4079 22.6434H22.4089L22.4127 22.6471L22.4145 22.649L22.4173 22.6527L22.4202 22.6545L22.423 22.6564L22.4258 22.6601L22.4268 22.662L22.4315 22.6656H22.4326L22.4373 22.6712L22.441 22.675L22.442 22.6768L22.4458 22.6805L22.4476 22.6825L22.4505 22.6842L22.4533 22.688L22.4552 22.6898L22.458 22.6935L22.4589 22.6954L22.4637 22.6992L22.4684 22.7047L22.4769 22.714L22.4788 22.7178L22.4806 22.7196L22.4835 22.7234L22.4844 22.7252L22.4883 22.7289C22.4996 22.7438 22.5099 22.7587 22.5205 22.7736L22.5233 22.7792C22.5696 22.8516 22.6018 22.9335 22.6159 23.0227L28.0335 33.1514C28.0969 33.2592 28.0581 33.3986 27.9475 33.4618C27.8369 33.525 27.6951 33.4859 27.6317 33.3781L24.8592 28.6567L22.218 30.7051V33.3335C22.218 33.4599 22.1131 33.5621 21.9854 33.5621C21.8568 33.5621 21.7528 33.4599 21.7528 33.3335V30.6753L19.0993 28.6195L16.3048 33.3781C16.2416 33.4859 16.0998 33.525 15.9892 33.4618C15.8785 33.3986 15.8398 33.2592 15.9031 33.1514L21.3205 23.023Z" fill="#FAFAFA"/>
</g>
<defs>
<clipPath id="clip0_902_6512">
<rect x="0.322815" width="45.3543" height="45.3543" rx="22.6771" fill="white"/>
</clipPath>
</defs>
</svg>
